<?xml version="1.0" encoding="utf-8"?>
<!-- Generator: Adobe Illustrator 18.1.1, SVG Export Plug-In . SVG Version: 6.00 Build 0)  -->
<svg version="1.1" id="Layer_1" xmlns="http://www.w3.org/2000/svg" xmlns:xlink="http://www.w3.org/1999/xlink" x="0px" y="0px"
	 viewBox="0 0 843.1 419.6" enable-background="new 0 0 843.1 419.6" xml:space="preserve">
<rect y="39" fill="none" width="843.1" height="301.1"/>
<text transform="matrix(1 0 0 1 0 326.4321)" font-family="'OCRAStd'" font-size="390">VCD</text>
<g>
	<g>
		<path d="M218,62.2c15.9,0,31.9,0,47.8,0c38.3,0,76.6,0,114.9,0c46.5,0,93.1,0,139.6,0c40.1,0,80.2,0,120.3,0c19.5,0,39,0.5,58.5,0
			c0.3,0,0.6,0,0.8,0c10,0,19.7-8.8,19.2-19.2c-0.5-10.4-8.4-19.2-19.2-19.2c-15.9,0-31.9,0-47.8,0c-38.3,0-76.6,0-114.9,0
			c-46.5,0-93.1,0-139.6,0c-40.1,0-80.2,0-120.3,0c-19.5,0-39-0.5-58.5,0c-0.3,0-0.6,0-0.8,0c-10,0-19.7,8.8-19.2,19.2
			C199.3,53.4,207.2,62.2,218,62.2L218,62.2z"/>
	</g>
</g>
</svg>
